<?xml version="1.0" standalone="no"?>
<!DOCTYPE svg PUBLIC "-//W3C//DTD SVG 20010904//EN"
 "http://www.w3.org/TR/2001/REC-SVG-20010904/DTD/svg10.dtd">
<svg version="1.0" xmlns="http://www.w3.org/2000/svg"
 width="700.000000pt" height="700.000000pt" viewBox="0 0 700.000000 700.000000"
 preserveAspectRatio="xMidYMid meet">
<metadata>
Created by potrace 1.11, written by Peter Selinger 2001-2013
</metadata>
<g transform="translate(0.000000,700.000000) scale(0.100000,-0.100000)"
fill="#000000" stroke="none">
<path d="M3115 6943 c-185 -13 -491 -81 -729 -163 -622 -215 -1185 -599 -1561
-1065 -285 -354 -617 -1031 -704 -1435 -69 -325 -88 -830 -45 -1250 7 -80 16
-154 19 -166 4 -17 38 -33 172 -83 310 -114 409 -129 913 -137 453 -8 579 1
746 51 104 32 580 214 733 282 l54 23 -149 101 c-190 129 -247 175 -361 291
-139 141 -225 256 -312 419 -394 739 -236 1685 376 2250 196 181 495 351 718
409 172 45 863 49 1057 6 149 -33 386 -154 558 -284 99 -76 268 -239 343 -332
179 -222 341 -544 377 -750 17 -95 25 -591 11 -735 -6 -66 -20 -154 -32 -195
-23 -84 -125 -303 -184 -395 -153 -241 -411 -514 -634 -670 -96 -67 -108 -81
-95 -103 18 -28 77 -56 349 -165 312 -125 421 -162 538 -182 200 -34 977 -28
1207 10 52 9 133 30 180 47 47 17 117 40 157 52 61 18 73 25 78 46 23 103 37
280 42 510 24 1144 -235 1846 -952 2579 -610 624 -1181 913 -1985 1005 -244
28 -685 43 -885 29z"/>
<path d="M3310 2769 c-297 -19 -421 -47 -765 -176 -628 -235 -744 -264 -1148
-284 -237 -12 -570 1 -707 26 -170 32 -378 99 -467 151 -24 14 -43 21 -43 16
0 -14 64 -189 106 -290 51 -122 171 -359 248 -490 l67 -112 619 0 619 0 512
210 513 210 682 0 683 0 258 -106 c624 -255 726 -288 948 -304 72 -5 318 -10
547 -10 l417 0 52 88 c116 195 248 473 328 689 l30 82 -47 -29 c-146 -90 -565
-139 -1072 -127 -398 10 -451 23 -1145 282 -281 104 -360 127 -530 150 -234
32 -461 40 -705 24z"/>
<path d="M3115 1730 c-146 -17 -251 -48 -605 -180 -413 -154 -648 -222 -902
-262 -121 -18 -186 -22 -423 -22 -266 -1 -282 0 -322 20 -24 12 -43 19 -43 16
0 -2 42 -55 94 -116 190 -225 427 -429 678 -585 56 -35 114 -71 128 -80 l25
-16 -17 27 c-13 20 -14 28 -5 36 7 5 77 31 157 57 80 26 306 105 502 176 383
138 455 158 691 190 197 26 676 37 852 20 213 -22 444 -83 725 -193 361 -140
633 -228 711 -228 47 0 309 190 499 363 91 82 260 262 268 285 1 5 -124 16
-279 26 -527 33 -697 71 -1259 281 -502 188 -493 186 -1015 190 -209 2 -416
-1 -460 -5z"/>
<path d="M3245 703 c-261 -20 -416 -63 -928 -258 l-258 -99 123 -51 c442 -186
826 -267 1273 -266 493 0 945 94 1415 294 82 35 136 63 125 65 -78 11 -194 47
-415 127 -397 144 -477 166 -669 185 -92 9 -565 11 -666 3z"/>
</g>
</svg>
