<!DOCTYPE svg PUBLIC "-//W3C//DTD SVG 20010904//EN" "http://www.w3.org/TR/2001/REC-SVG-20010904/DTD/svg10.dtd">
<svg version="1.0" xmlns="http://www.w3.org/2000/svg" width="150px" height="150px" viewBox="0 0 1500 1500" preserveAspectRatio="xMidYMid meet">
<g id="layer101" fill="#0d4b92" stroke="none">
<path d="M649 1489 c-131 -17 -292 -91 -392 -179 -106 -94 -203 -259 -232 -395 -19 -90 -19 -240 0 -330 18 -87 89 -232 149 -307 93 -117 242 -210 396 -249 70 -18 104 -21 209 -17 212 8 351 68 496 213 144 144 205 284 212 490 6 151 -11 238 -71 360 -54 109 -115 188 -198 254 -159 125 -376 187 -569 160z"/>
</g>
<g id="layer102" fill="#f26821" stroke="none">
<path d="M152 1000 c-68 -13 -122 -35 -122 -52 0 -7 -3 -23 -6 -35 l-6 -23 58 21 c72 26 228 36 302 20 29 -6 86 -25 127 -42 l75 -32 -49 -33 c-254 -172 -223 -561 57 -692 51 -24 69 -27 167 -27 100 0 115 3 168 28 80 40 151 112 190 194 29 62 32 76 32 168 0 92 -2 105 -32 166 -31 62 -101 140 -162 179 -23 15 -21 16 75 55 98 39 101 39 229 39 98 0 141 -4 174 -17 24 -10 46 -16 47 -14 2 2 -1 19 -6 39 -10 33 -15 37 -63 50 -29 7 -100 13 -162 12 -115 -1 -107 1 -315 -77 -80 -30 -262 -30 -340 0 -176 67 -200 74 -292 78 -51 2 -117 0 -146 -5z"/>
</g>
<g id="layer103" fill="#fcfcfd" stroke="none">
<path d="M395 1405 c-24 -15 -33 -26 -24 -28 16 -4 117 -39 199 -70 68 -25 227 -34 310 -18 33 7 92 25 132 42 40 17 89 33 107 37 l35 8 -39 23 c-44 25 -34 27 -175 -25 -64 -23 -90 -27 -180 -27 -107 1 -131 6 -260 56 l-66 25 -39 -23z"/>
<path d="M152 1193 l-30 -38 137 0 136 0 110 -45 110 -45 145 0 145 0 110 45 c110 44 110 45 236 45 l127 0 -31 39 -31 39 -90 -6 c-90 -5 -146 -20 -281 -73 -62 -24 -84 -27 -185 -27 -111 -1 -119 1 -223 41 -124 47 -192 62 -288 62 -66 0 -68 -1 -97 -37z"/>
<path d="M152 1000 c-68 -13 -122 -35 -122 -52 0 -7 -3 -23 -6 -35 l-6 -23 58 22 c49 18 81 22 189 22 125 1 133 0 210 -33 119 -50 170 -61 280 -61 118 1 157 8 278 58 90 36 95 37 222 36 98 0 141 -4 174 -17 24 -10 46 -16 47 -14 2 2 -1 19 -6 39 -10 33 -15 37 -63 50 -29 7 -100 13 -162 12 -115 -1 -107 1 -315 -77 -80 -30 -262 -30 -340 0 -176 67 -200 74 -292 78 -51 2 -117 0 -146 -5z"/>
</g>


</svg>